<svg xmlns="http://www.w3.org/2000/svg" xmlns:xlink="http://www.w3.org/1999/xlink" width="500" zoomAndPan="magnify" viewBox="0 0 375 374.999991" height="500" preserveAspectRatio="xMidYMid meet" version="1.0"><defs><g/><clipPath id="63e0b1f81d"><path d="M 158 112.5 L 220 112.5 L 220 193.5 L 158 193.5 Z M 158 112.5 " clip-rule="nonzero"/></clipPath></defs><path fill="#f7941e" d="M 167.164062 142.761719 L 178.097656 147.042969 L 181.410156 163.933594 L 188.949219 153.21875 L 198.195312 160.503906 L 204.402344 125.328125 Z M 180.214844 146.789062 L 189.308594 141.054688 L 182.808594 148.546875 L 181.851562 155.0625 Z M 183.710938 156.988281 L 184.769531 149.925781 L 187.277344 151.90625 Z M 196.710938 156.648438 L 185.964844 148.171875 L 194.816406 136.09375 L 178.902344 145.097656 L 172.554688 142.589844 L 201.605469 128.996094 Z M 196.710938 156.648438 " fill-opacity="1" fill-rule="nonzero"/><path fill="#f7941e" d="M 155 163.335938 L 155 166.507812 L 175.589844 153.441406 L 175.046875 150.644531 Z M 155 163.335938 " fill-opacity="1" fill-rule="nonzero"/><g clip-path="url(#63e0b1f81d)"><path fill="#f7941e" d="M 189.441406 112.5 C 172.570312 112.5 158.890625 126.179688 158.890625 143.050781 C 158.890625 146.480469 159.402344 149.824219 160.289062 153.066406 L 158.667969 154.089844 L 158.667969 157.261719 L 172.109375 148.683594 L 169.039062 147.488281 L 162.625 151.582031 C 161.925781 148.800781 161.535156 145.953125 161.535156 143.050781 C 161.535156 127.664062 174.054688 115.160156 189.425781 115.160156 C 204.8125 115.160156 217.335938 127.683594 217.335938 143.050781 C 217.335938 162.753906 199.183594 180.15625 189.441406 189.503906 C 183.523438 183.839844 174.535156 175.207031 168.375 164.90625 L 176.769531 159.515625 L 176.222656 156.734375 L 161.550781 166.132812 L 161.550781 169.253906 L 166.140625 166.339844 C 173.238281 178.160156 183.761719 187.695312 189.441406 193.207031 C 198.5 184.421875 219.996094 165.296875 219.996094 143.085938 C 219.996094 126.164062 206.316406 112.5 189.441406 112.5 Z M 189.441406 112.5 " fill-opacity="1" fill-rule="nonzero"/></g><g fill="#ffffff" fill-opacity="1"><g transform="translate(37.012107, 227.968607)"><g><path d="M 17.28125 -42.0625 C 23.476562 -42.0625 28.238281 -40.96875 31.5625 -38.78125 C 34.882812 -36.601562 36.546875 -33.035156 36.546875 -28.078125 C 36.546875 -23.078125 34.863281 -19.46875 31.5 -17.25 C 28.132812 -15.03125 23.332031 -13.921875 17.09375 -13.921875 L 14.15625 -13.921875 L 14.15625 0 L 4.796875 0 L 4.796875 -40.984375 C 6.835938 -41.378906 9 -41.65625 11.28125 -41.8125 C 13.5625 -41.976562 15.5625 -42.0625 17.28125 -42.0625 Z M 17.875 -34.078125 C 17.195312 -34.078125 16.523438 -34.054688 15.859375 -34.015625 C 15.203125 -33.972656 14.632812 -33.9375 14.15625 -33.90625 L 14.15625 -21.90625 L 17.09375 -21.90625 C 20.332031 -21.90625 22.769531 -22.34375 24.40625 -23.21875 C 26.050781 -24.101562 26.875 -25.742188 26.875 -28.140625 C 26.875 -29.296875 26.664062 -30.253906 26.25 -31.015625 C 25.832031 -31.773438 25.234375 -32.382812 24.453125 -32.84375 C 23.671875 -33.3125 22.71875 -33.632812 21.59375 -33.8125 C 20.476562 -33.988281 19.238281 -34.078125 17.875 -34.078125 Z M 17.875 -34.078125 "/></g></g></g><g fill="#ffffff" fill-opacity="1"><g transform="translate(73.132073, 227.968607)"><g><path d="M 16.265625 -6.234375 C 17.140625 -6.234375 17.976562 -6.253906 18.78125 -6.296875 C 19.582031 -6.335938 20.222656 -6.398438 20.703125 -6.484375 L 20.703125 -13.265625 C 20.335938 -13.335938 19.796875 -13.414062 19.078125 -13.5 C 18.359375 -13.582031 17.695312 -13.625 17.09375 -13.625 C 16.257812 -13.625 15.472656 -13.570312 14.734375 -13.46875 C 13.992188 -13.363281 13.34375 -13.171875 12.78125 -12.890625 C 12.21875 -12.617188 11.773438 -12.242188 11.453125 -11.765625 C 11.140625 -11.285156 10.984375 -10.679688 10.984375 -9.953125 C 10.984375 -8.554688 11.453125 -7.585938 12.390625 -7.046875 C 13.328125 -6.503906 14.617188 -6.234375 16.265625 -6.234375 Z M 15.546875 -32.40625 C 18.179688 -32.40625 20.378906 -32.101562 22.140625 -31.5 C 23.898438 -30.894531 25.304688 -30.03125 26.359375 -28.90625 C 27.421875 -27.789062 28.171875 -26.429688 28.609375 -24.828125 C 29.054688 -23.234375 29.28125 -21.457031 29.28125 -19.5 L 29.28125 -0.90625 C 28 -0.625 26.21875 -0.296875 23.9375 0.078125 C 21.65625 0.460938 18.894531 0.65625 15.65625 0.65625 C 13.613281 0.65625 11.765625 0.472656 10.109375 0.109375 C 8.453125 -0.242188 7.019531 -0.828125 5.8125 -1.640625 C 4.613281 -2.460938 3.691406 -3.535156 3.046875 -4.859375 C 2.410156 -6.179688 2.09375 -7.800781 2.09375 -9.71875 C 2.09375 -11.5625 2.460938 -13.117188 3.203125 -14.390625 C 3.941406 -15.671875 4.929688 -16.691406 6.171875 -17.453125 C 7.421875 -18.210938 8.84375 -18.765625 10.4375 -19.109375 C 12.039062 -19.453125 13.703125 -19.625 15.421875 -19.625 C 16.578125 -19.625 17.601562 -19.570312 18.5 -19.46875 C 19.40625 -19.363281 20.140625 -19.234375 20.703125 -19.078125 L 20.703125 -19.921875 C 20.703125 -21.441406 20.238281 -22.660156 19.3125 -23.578125 C 18.394531 -24.492188 16.796875 -24.953125 14.515625 -24.953125 C 12.992188 -24.953125 11.492188 -24.84375 10.015625 -24.625 C 8.535156 -24.40625 7.257812 -24.097656 6.1875 -23.703125 L 5.046875 -30.90625 C 5.554688 -31.0625 6.203125 -31.226562 6.984375 -31.40625 C 7.765625 -31.59375 8.613281 -31.753906 9.53125 -31.890625 C 10.457031 -32.023438 11.429688 -32.144531 12.453125 -32.25 C 13.472656 -32.351562 14.503906 -32.40625 15.546875 -32.40625 Z M 15.546875 -32.40625 "/></g></g></g><g fill="#ffffff" fill-opacity="1"><g transform="translate(103.79204, 227.968607)"><g><path d="M 3.90625 -39.421875 L 12.84375 -40.859375 L 12.84375 -31.5625 L 23.578125 -31.5625 L 23.578125 -24.125 L 12.84375 -24.125 L 12.84375 -13.015625 C 12.84375 -11.140625 13.171875 -9.640625 13.828125 -8.515625 C 14.484375 -7.398438 15.8125 -6.84375 17.8125 -6.84375 C 18.78125 -6.84375 19.769531 -6.929688 20.78125 -7.109375 C 21.800781 -7.285156 22.734375 -7.535156 23.578125 -7.859375 L 24.84375 -0.90625 C 23.757812 -0.457031 22.554688 -0.078125 21.234375 0.234375 C 19.921875 0.554688 18.300781 0.71875 16.375 0.71875 C 13.9375 0.71875 11.914062 0.390625 10.3125 -0.265625 C 8.71875 -0.929688 7.441406 -1.851562 6.484375 -3.03125 C 5.523438 -4.207031 4.851562 -5.632812 4.46875 -7.3125 C 4.09375 -9 3.90625 -10.863281 3.90625 -12.90625 Z M 3.90625 -39.421875 "/></g></g></g><g fill="#ffffff" fill-opacity="1"><g transform="translate(127.912018, 227.968607)"><g><path d="M 16.265625 -6.234375 C 17.140625 -6.234375 17.976562 -6.253906 18.78125 -6.296875 C 19.582031 -6.335938 20.222656 -6.398438 20.703125 -6.484375 L 20.703125 -13.265625 C 20.335938 -13.335938 19.796875 -13.414062 19.078125 -13.5 C 18.359375 -13.582031 17.695312 -13.625 17.09375 -13.625 C 16.257812 -13.625 15.472656 -13.570312 14.734375 -13.46875 C 13.992188 -13.363281 13.34375 -13.171875 12.78125 -12.890625 C 12.21875 -12.617188 11.773438 -12.242188 11.453125 -11.765625 C 11.140625 -11.285156 10.984375 -10.679688 10.984375 -9.953125 C 10.984375 -8.554688 11.453125 -7.585938 12.390625 -7.046875 C 13.328125 -6.503906 14.617188 -6.234375 16.265625 -6.234375 Z M 15.546875 -32.40625 C 18.179688 -32.40625 20.378906 -32.101562 22.140625 -31.5 C 23.898438 -30.894531 25.304688 -30.03125 26.359375 -28.90625 C 27.421875 -27.789062 28.171875 -26.429688 28.609375 -24.828125 C 29.054688 -23.234375 29.28125 -21.457031 29.28125 -19.5 L 29.28125 -0.90625 C 28 -0.625 26.21875 -0.296875 23.9375 0.078125 C 21.65625 0.460938 18.894531 0.65625 15.65625 0.65625 C 13.613281 0.65625 11.765625 0.472656 10.109375 0.109375 C 8.453125 -0.242188 7.019531 -0.828125 5.8125 -1.640625 C 4.613281 -2.460938 3.691406 -3.535156 3.046875 -4.859375 C 2.410156 -6.179688 2.09375 -7.800781 2.09375 -9.71875 C 2.09375 -11.5625 2.460938 -13.117188 3.203125 -14.390625 C 3.941406 -15.671875 4.929688 -16.691406 6.171875 -17.453125 C 7.421875 -18.210938 8.84375 -18.765625 10.4375 -19.109375 C 12.039062 -19.453125 13.703125 -19.625 15.421875 -19.625 C 16.578125 -19.625 17.601562 -19.570312 18.5 -19.46875 C 19.40625 -19.363281 20.140625 -19.234375 20.703125 -19.078125 L 20.703125 -19.921875 C 20.703125 -21.441406 20.238281 -22.660156 19.3125 -23.578125 C 18.394531 -24.492188 16.796875 -24.953125 14.515625 -24.953125 C 12.992188 -24.953125 11.492188 -24.84375 10.015625 -24.625 C 8.535156 -24.40625 7.257812 -24.097656 6.1875 -23.703125 L 5.046875 -30.90625 C 5.554688 -31.0625 6.203125 -31.226562 6.984375 -31.40625 C 7.765625 -31.59375 8.613281 -31.753906 9.53125 -31.890625 C 10.457031 -32.023438 11.429688 -32.144531 12.453125 -32.25 C 13.472656 -32.351562 14.503906 -32.40625 15.546875 -32.40625 Z M 15.546875 -32.40625 "/></g></g></g><g fill="#ffffff" fill-opacity="1"><g transform="translate(158.571985, 227.968607)"><g><path d="M 11.8125 -16.796875 C 11.8125 -11.796875 13.832031 -9.296875 17.875 -9.296875 C 18.800781 -9.296875 19.660156 -9.414062 20.453125 -9.65625 C 21.253906 -9.894531 21.9375 -10.175781 22.5 -10.5 L 22.5 -24.78125 C 22.0625 -24.863281 21.539062 -24.929688 20.9375 -24.984375 C 20.34375 -25.046875 19.644531 -25.078125 18.84375 -25.078125 C 16.476562 -25.078125 14.710938 -24.296875 13.546875 -22.734375 C 12.390625 -21.179688 11.8125 -19.203125 11.8125 -16.796875 Z M 31.4375 -3.953125 C 31.4375 1.203125 30.125 5.03125 27.5 7.53125 C 24.882812 10.03125 20.835938 11.28125 15.359375 11.28125 C 13.441406 11.28125 11.519531 11.109375 9.59375 10.765625 C 7.675781 10.429688 5.898438 9.984375 4.265625 9.421875 L 5.8125 1.921875 C 7.21875 2.484375 8.691406 2.921875 10.234375 3.234375 C 11.773438 3.554688 13.523438 3.71875 15.484375 3.71875 C 18.035156 3.71875 19.84375 3.15625 20.90625 2.03125 C 21.96875 0.914062 22.5 -0.519531 22.5 -2.28125 L 22.5 -3.421875 C 21.539062 -2.984375 20.550781 -2.648438 19.53125 -2.421875 C 18.507812 -2.203125 17.398438 -2.09375 16.203125 -2.09375 C 11.835938 -2.09375 8.492188 -3.382812 6.171875 -5.96875 C 3.859375 -8.550781 2.703125 -12.160156 2.703125 -16.796875 C 2.703125 -19.117188 3.0625 -21.226562 3.78125 -23.125 C 4.5 -25.03125 5.546875 -26.660156 6.921875 -28.015625 C 8.304688 -29.378906 10 -30.429688 12 -31.171875 C 14 -31.910156 16.257812 -32.28125 18.78125 -32.28125 C 19.863281 -32.28125 20.972656 -32.226562 22.109375 -32.125 C 23.242188 -32.03125 24.375 -31.898438 25.5 -31.734375 C 26.625 -31.578125 27.691406 -31.390625 28.703125 -31.171875 C 29.722656 -30.953125 30.632812 -30.722656 31.4375 -30.484375 Z M 31.4375 -3.953125 "/></g></g></g><g fill="#ffffff" fill-opacity="1"><g transform="translate(191.691952, 227.968607)"><g><path d="M 33.71875 -15.84375 C 33.71875 -13.363281 33.359375 -11.09375 32.640625 -9.03125 C 31.921875 -6.96875 30.878906 -5.207031 29.515625 -3.75 C 28.160156 -2.289062 26.53125 -1.160156 24.625 -0.359375 C 22.726562 0.441406 20.597656 0.84375 18.234375 0.84375 C 15.921875 0.84375 13.8125 0.441406 11.90625 -0.359375 C 10.007812 -1.160156 8.378906 -2.289062 7.015625 -3.75 C 5.660156 -5.207031 4.601562 -6.96875 3.84375 -9.03125 C 3.082031 -11.09375 2.703125 -13.363281 2.703125 -15.84375 C 2.703125 -18.320312 3.09375 -20.582031 3.875 -22.625 C 4.65625 -24.664062 5.734375 -26.40625 7.109375 -27.84375 C 8.492188 -29.28125 10.132812 -30.398438 12.03125 -31.203125 C 13.925781 -32.003906 15.992188 -32.40625 18.234375 -32.40625 C 20.515625 -32.40625 22.601562 -32.003906 24.5 -31.203125 C 26.40625 -30.398438 28.035156 -29.28125 29.390625 -27.84375 C 30.753906 -26.40625 31.816406 -24.664062 32.578125 -22.625 C 33.335938 -20.582031 33.71875 -18.320312 33.71875 -15.84375 Z M 24.59375 -15.84375 C 24.59375 -18.601562 24.039062 -20.769531 22.9375 -22.34375 C 21.84375 -23.925781 20.273438 -24.71875 18.234375 -24.71875 C 16.203125 -24.71875 14.625 -23.925781 13.5 -22.34375 C 12.375 -20.769531 11.8125 -18.601562 11.8125 -15.84375 C 11.8125 -13.082031 12.375 -10.890625 13.5 -9.265625 C 14.625 -7.648438 16.203125 -6.84375 18.234375 -6.84375 C 20.273438 -6.84375 21.84375 -7.648438 22.9375 -9.265625 C 24.039062 -10.890625 24.59375 -13.082031 24.59375 -15.84375 Z M 24.59375 -15.84375 "/></g></g></g><g fill="#ffffff" fill-opacity="1"><g transform="translate(225.591913, 227.968607)"><g><path d="M 4.203125 -30.484375 C 5.722656 -30.921875 7.679688 -31.328125 10.078125 -31.703125 C 12.484375 -32.085938 15.003906 -32.28125 17.640625 -32.28125 C 20.316406 -32.28125 22.546875 -31.929688 24.328125 -31.234375 C 26.109375 -30.535156 27.519531 -29.546875 28.5625 -28.265625 C 29.601562 -26.984375 30.34375 -25.460938 30.78125 -23.703125 C 31.21875 -21.941406 31.4375 -19.976562 31.4375 -17.8125 L 31.4375 0 L 22.5 0 L 22.5 -16.734375 C 22.5 -19.617188 22.117188 -21.660156 21.359375 -22.859375 C 20.597656 -24.054688 19.175781 -24.65625 17.09375 -24.65625 C 16.457031 -24.65625 15.78125 -24.625 15.0625 -24.5625 C 14.34375 -24.507812 13.703125 -24.441406 13.140625 -24.359375 L 13.140625 0 L 4.203125 0 Z M 4.203125 -30.484375 "/></g></g></g><g fill="#ffffff" fill-opacity="1"><g transform="translate(258.411872, 227.968607)"><g><path d="M 13.140625 0 L 4.203125 0 L 4.203125 -31.5625 L 13.140625 -31.5625 Z M 13.984375 -40.6875 C 13.984375 -39.039062 13.453125 -37.75 12.390625 -36.8125 C 11.328125 -35.875 10.078125 -35.40625 8.640625 -35.40625 C 7.203125 -35.40625 5.953125 -35.875 4.890625 -36.8125 C 3.828125 -37.75 3.296875 -39.039062 3.296875 -40.6875 C 3.296875 -42.320312 3.828125 -43.609375 4.890625 -44.546875 C 5.953125 -45.484375 7.203125 -45.953125 8.640625 -45.953125 C 10.078125 -45.953125 11.328125 -45.484375 12.390625 -44.546875 C 13.453125 -43.609375 13.984375 -42.320312 13.984375 -40.6875 Z M 13.984375 -40.6875 "/></g></g></g><g fill="#ffffff" fill-opacity="1"><g transform="translate(273.231856, 227.968607)"><g><path d="M 16.265625 -6.234375 C 17.140625 -6.234375 17.976562 -6.253906 18.78125 -6.296875 C 19.582031 -6.335938 20.222656 -6.398438 20.703125 -6.484375 L 20.703125 -13.265625 C 20.335938 -13.335938 19.796875 -13.414062 19.078125 -13.5 C 18.359375 -13.582031 17.695312 -13.625 17.09375 -13.625 C 16.257812 -13.625 15.472656 -13.570312 14.734375 -13.46875 C 13.992188 -13.363281 13.34375 -13.171875 12.78125 -12.890625 C 12.21875 -12.617188 11.773438 -12.242188 11.453125 -11.765625 C 11.140625 -11.285156 10.984375 -10.679688 10.984375 -9.953125 C 10.984375 -8.554688 11.453125 -7.585938 12.390625 -7.046875 C 13.328125 -6.503906 14.617188 -6.234375 16.265625 -6.234375 Z M 15.546875 -32.40625 C 18.179688 -32.40625 20.378906 -32.101562 22.140625 -31.5 C 23.898438 -30.894531 25.304688 -30.03125 26.359375 -28.90625 C 27.421875 -27.789062 28.171875 -26.429688 28.609375 -24.828125 C 29.054688 -23.234375 29.28125 -21.457031 29.28125 -19.5 L 29.28125 -0.90625 C 28 -0.625 26.21875 -0.296875 23.9375 0.078125 C 21.65625 0.460938 18.894531 0.65625 15.65625 0.65625 C 13.613281 0.65625 11.765625 0.472656 10.109375 0.109375 C 8.453125 -0.242188 7.019531 -0.828125 5.8125 -1.640625 C 4.613281 -2.460938 3.691406 -3.535156 3.046875 -4.859375 C 2.410156 -6.179688 2.09375 -7.800781 2.09375 -9.71875 C 2.09375 -11.5625 2.460938 -13.117188 3.203125 -14.390625 C 3.941406 -15.671875 4.929688 -16.691406 6.171875 -17.453125 C 7.421875 -18.210938 8.84375 -18.765625 10.4375 -19.109375 C 12.039062 -19.453125 13.703125 -19.625 15.421875 -19.625 C 16.578125 -19.625 17.601562 -19.570312 18.5 -19.46875 C 19.40625 -19.363281 20.140625 -19.234375 20.703125 -19.078125 L 20.703125 -19.921875 C 20.703125 -21.441406 20.238281 -22.660156 19.3125 -23.578125 C 18.394531 -24.492188 16.796875 -24.953125 14.515625 -24.953125 C 12.992188 -24.953125 11.492188 -24.84375 10.015625 -24.625 C 8.535156 -24.40625 7.257812 -24.097656 6.1875 -23.703125 L 5.046875 -30.90625 C 5.554688 -31.0625 6.203125 -31.226562 6.984375 -31.40625 C 7.765625 -31.59375 8.613281 -31.753906 9.53125 -31.890625 C 10.457031 -32.023438 11.429688 -32.144531 12.453125 -32.25 C 13.472656 -32.351562 14.503906 -32.40625 15.546875 -32.40625 Z M 15.546875 -32.40625 "/></g></g></g><g fill="#f7941e" fill-opacity="1"><g transform="translate(303.894905, 227.968607)"><g><path d="M 2.9375 -21.65625 L 12.953125 -21.65625 L 12.953125 -32.765625 L 21.125 -32.765625 L 21.125 -21.65625 L 31.140625 -21.65625 L 31.140625 -14.15625 L 21.125 -14.15625 L 21.125 -3.0625 L 12.953125 -3.0625 L 12.953125 -14.15625 L 2.9375 -14.15625 Z M 2.9375 -21.65625 "/></g></g></g><g fill="#f7941e" fill-opacity="1"><g transform="translate(76.192833, 258.473654)"><g><path d="M 3.679688 -5.878906 L 4.605469 -10.695312 L 7.363281 -10.695312 C 8.078125 -10.695312 8.617188 -10.46875 8.964844 -10.03125 C 9.316406 -9.59375 9.421875 -9.019531 9.28125 -8.320312 C 9.140625 -7.625 8.792969 -7.046875 8.25 -6.578125 C 7.710938 -6.125 7.117188 -5.878906 6.4375 -5.878906 Z M 10.484375 -8.285156 C 10.695312 -9.332031 10.5 -10.1875 9.890625 -10.867188 C 9.296875 -11.53125 8.460938 -11.863281 7.414062 -11.863281 L 3.609375 -11.863281 L 1.308594 0 L 2.53125 0 L 3.4375 -4.691406 L 6.019531 -4.691406 C 7.082031 -4.691406 8.023438 -5.042969 8.878906 -5.703125 C 9.75 -6.386719 10.273438 -7.238281 10.484375 -8.285156 Z M 10.484375 -8.285156 "/></g></g></g><g fill="#f7941e" fill-opacity="1"><g transform="translate(88.907208, 258.473654)"><g><path d="M 4.082031 -4.359375 L 7.292969 -9.820312 L 8.390625 -4.359375 Z M 10.589844 0 L 7.851562 -12.683594 L 0.175781 0 L 1.5 0 L 3.402344 -3.226562 L 8.617188 -3.226562 L 9.261719 0 Z M 10.589844 0 "/></g></g></g><g fill="#f7941e" fill-opacity="1"><g transform="translate(103.156087, 258.473654)"><g><path d="M 2.441406 -10.761719 L 5.320312 -10.761719 L 3.226562 -0.0351562 L 4.449219 -0.0351562 L 6.542969 -10.761719 L 9.421875 -10.761719 L 9.648438 -11.898438 L 2.667969 -11.898438 Z M 2.441406 -10.761719 "/></g></g></g><g fill="#f7941e" fill-opacity="1"><g transform="translate(114.318519, 258.473654)"><g><path d="M 4.082031 -4.359375 L 7.292969 -9.820312 L 8.390625 -4.359375 Z M 10.589844 0 L 7.851562 -12.683594 L 0.175781 0 L 1.5 0 L 3.402344 -3.226562 L 8.617188 -3.226562 L 9.261719 0 Z M 10.589844 0 "/></g></g></g><g fill="#f7941e" fill-opacity="1"><g transform="translate(128.567397, 258.473654)"><g><path d="M 14.09375 -5.546875 L 7.921875 -5.546875 L 7.710938 -4.484375 L 12.527344 -4.484375 C 11.96875 -3.453125 11.199219 -2.632812 10.207031 -2.007812 C 9.210938 -1.378906 8.183594 -1.082031 7.101562 -1.082031 C 5.738281 -1.082031 4.691406 -1.570312 3.925781 -2.53125 C 3.15625 -3.488281 2.914062 -4.640625 3.175781 -5.984375 C 3.4375 -7.328125 4.132812 -8.476562 5.269531 -9.4375 C 6.402344 -10.398438 7.660156 -10.867188 9 -10.867188 C 10.011719 -10.867188 10.886719 -10.589844 11.601562 -10.011719 C 12.316406 -9.4375 12.769531 -8.671875 12.960938 -7.710938 L 14.253906 -7.710938 C 14.113281 -9.019531 13.570312 -10.082031 12.648438 -10.886719 C 11.722656 -11.6875 10.535156 -12.089844 9.125 -12.089844 C 8.375 -12.089844 7.570312 -11.933594 6.769531 -11.617188 C 5.964844 -11.304688 5.234375 -10.867188 4.570312 -10.308594 C 3.90625 -9.75 3.367188 -9.105469 2.894531 -8.355469 C 2.425781 -7.605469 2.109375 -6.804688 1.953125 -5.964844 C 1.796875 -5.128906 1.796875 -4.34375 1.972656 -3.59375 C 2.144531 -2.84375 2.441406 -2.199219 2.894531 -1.640625 C 3.347656 -1.082031 3.90625 -0.644531 4.589844 -0.332031 C 5.269531 -0.015625 6.019531 0.140625 6.855469 0.140625 C 8.285156 0.140625 9.699219 -0.332031 11.023438 -1.257812 C 12.351562 -2.179688 13.292969 -3.367188 13.832031 -4.816406 Z M 14.09375 -5.546875 "/></g></g></g><g fill="#f7941e" fill-opacity="1"><g transform="translate(145.850423, 258.473654)"><g><path d="M 12.910156 -5.964844 C 12.648438 -4.621094 11.949219 -3.472656 10.816406 -2.511719 C 9.683594 -1.550781 8.425781 -1.082031 7.082031 -1.082031 C 5.738281 -1.082031 4.691406 -1.550781 3.925781 -2.511719 C 3.15625 -3.472656 2.894531 -4.621094 3.15625 -5.964844 C 3.417969 -7.308594 4.132812 -8.445312 5.269531 -9.402344 C 6.402344 -10.363281 7.640625 -10.832031 8.984375 -10.832031 C 10.328125 -10.832031 11.390625 -10.363281 12.160156 -9.402344 C 12.925781 -8.445312 13.171875 -7.308594 12.910156 -5.964844 Z M 14.128906 -5.964844 C 14.289062 -6.804688 14.289062 -7.589844 14.113281 -8.339844 C 13.9375 -9.089844 13.640625 -9.734375 13.1875 -10.273438 C 12.734375 -10.816406 12.175781 -11.253906 11.496094 -11.566406 C 10.816406 -11.878906 10.046875 -12.054688 9.210938 -12.054688 C 8.375 -12.054688 7.554688 -11.878906 6.75 -11.566406 C 5.949219 -11.253906 5.234375 -10.816406 4.570312 -10.273438 C 3.90625 -9.734375 3.347656 -9.089844 2.878906 -8.339844 C 2.40625 -7.589844 2.09375 -6.804688 1.9375 -5.964844 C 1.78125 -5.128906 1.796875 -4.34375 1.972656 -3.59375 C 2.144531 -2.84375 2.441406 -2.199219 2.894531 -1.640625 C 3.347656 -1.082031 3.890625 -0.644531 4.570312 -0.332031 C 5.25 -0.015625 6 0.140625 6.839844 0.140625 C 7.675781 0.140625 8.511719 -0.015625 9.316406 -0.332031 C 10.117188 -0.644531 10.851562 -1.082031 11.515625 -1.640625 C 12.175781 -2.199219 12.734375 -2.84375 13.207031 -3.59375 C 13.675781 -4.34375 13.972656 -5.128906 14.128906 -5.964844 Z M 14.128906 -5.964844 "/></g></g></g><g fill="#f7941e" fill-opacity="1"><g transform="translate(163.098568, 258.473654)"><g><path d="M 4.222656 -8.738281 L 9.054688 0.734375 L 11.496094 -11.863281 L 10.273438 -11.863281 L 8.582031 -3.140625 L 3.769531 -12.613281 L 1.308594 0 L 2.53125 0 Z M 4.222656 -8.738281 "/></g></g></g><g fill="#f7941e" fill-opacity="1"><g transform="translate(177.085897, 258.473654)"><g><path d="M 2.53125 0 L 4.832031 -11.863281 L 3.609375 -11.863281 L 1.308594 0 Z M 2.53125 0 "/></g></g></g><g fill="#f7941e" fill-opacity="1"><g transform="translate(184.412061, 258.473654)"><g><path d="M 4.082031 -4.359375 L 7.292969 -9.820312 L 8.390625 -4.359375 Z M 10.589844 0 L 7.851562 -12.683594 L 0.175781 0 L 1.5 0 L 3.402344 -3.226562 L 8.617188 -3.226562 L 9.261719 0 Z M 10.589844 0 "/></g></g></g><g fill="#f7941e" fill-opacity="1"><g transform="translate(198.660939, 258.473654)"><g><path d="M 12.246094 0 L 13.484375 0 L 13.1875 -12.648438 L 7.328125 -2.496094 L 5.40625 -12.648438 L 0.175781 0 L 1.429688 0 L 4.902344 -8.445312 L 6.699219 0.699219 L 12.035156 -8.445312 Z M 12.246094 0 "/></g></g></g><g fill="#f7941e" fill-opacity="1"><g transform="translate(215.804461, 258.473654)"><g><path d="M 4.082031 -4.359375 L 7.292969 -9.820312 L 8.390625 -4.359375 Z M 10.589844 0 L 7.851562 -12.683594 L 0.175781 0 L 1.5 0 L 3.402344 -3.226562 L 8.617188 -3.226562 L 9.261719 0 Z M 10.589844 0 "/></g></g></g><g fill="#f7941e" fill-opacity="1"><g transform="translate(230.053339, 258.473654)"><g><path d="M 5.6875 -5.601562 C 7.152344 -5.234375 8.128906 -4.832031 8.582031 -4.378906 C 8.898438 -4.066406 9.019531 -3.664062 8.914062 -3.175781 C 8.808594 -2.6875 8.652344 -2.269531 8.390625 -1.988281 C 7.726562 -1.257812 6.714844 -0.890625 5.390625 -0.890625 C 3.523438 -0.890625 2.617188 -1.519531 2.632812 -2.773438 L 1.1875 -2.773438 C 1.222656 -0.769531 2.53125 0.226562 5.164062 0.226562 C 6.332031 0.226562 7.363281 -0.015625 8.25 -0.539062 C 9.316406 -1.152344 9.960938 -2.074219 10.1875 -3.261719 C 10.378906 -4.238281 10.136719 -4.972656 9.488281 -5.511719 C 9.019531 -5.894531 8.214844 -6.246094 7.066406 -6.558594 C 5.914062 -6.875 5.179688 -7.136719 4.851562 -7.328125 C 4.132812 -7.726562 3.855469 -8.285156 3.996094 -9.019531 C 4.066406 -9.402344 4.203125 -9.734375 4.429688 -9.980469 C 5.023438 -10.660156 5.878906 -10.992188 7.03125 -10.992188 C 8.652344 -10.992188 9.488281 -10.484375 9.523438 -9.457031 L 10.832031 -9.457031 C 10.730469 -11.183594 9.542969 -12.035156 7.238281 -12.035156 C 6.191406 -12.035156 5.214844 -11.773438 4.328125 -11.21875 C 3.4375 -10.660156 2.878906 -9.820312 2.667969 -8.703125 C 2.371094 -7.1875 3.382812 -6.15625 5.6875 -5.601562 Z M 5.6875 -5.601562 "/></g></g></g><g fill="#f7941e" fill-opacity="1"><g transform="translate(243.552411, 258.473654)"><g><path d="M 2.320312 0.175781 C 2.582031 0.175781 2.824219 0.0859375 3.035156 -0.105469 C 3.246094 -0.296875 3.347656 -0.523438 3.347656 -0.800781 C 3.347656 -1.082031 3.246094 -1.308594 3.035156 -1.5 C 2.824219 -1.691406 2.597656 -1.796875 2.320312 -1.796875 C 2.042969 -1.796875 1.796875 -1.691406 1.605469 -1.5 C 1.394531 -1.289062 1.308594 -1.0625 1.308594 -0.800781 C 1.308594 -0.523438 1.394531 -0.296875 1.605469 -0.105469 C 1.8125 0.0859375 2.042969 0.175781 2.320312 0.175781 Z M 2.320312 0.175781 "/></g></g></g><g fill="#f7941e" fill-opacity="1"><g transform="translate(251.698144, 258.473654)"><g><path d="M 12.890625 -3.628906 L 11.546875 -3.628906 C 10.992188 -2.859375 10.308594 -2.25 9.472656 -1.78125 C 8.636719 -1.308594 7.796875 -1.082031 6.910156 -1.082031 C 5.601562 -1.082031 4.589844 -1.570312 3.855469 -2.53125 C 3.140625 -3.472656 2.894531 -4.589844 3.15625 -5.914062 C 3.417969 -7.238281 4.082031 -8.375 5.164062 -9.316406 C 5.667969 -9.75 6.246094 -10.101562 6.875 -10.363281 C 7.5 -10.625 8.078125 -10.761719 8.617188 -10.761719 C 9.160156 -10.761719 9.628906 -10.695312 10.011719 -10.570312 C 11.21875 -10.1875 12.019531 -9.421875 12.4375 -8.25 L 13.78125 -8.25 C 13.554688 -9.386719 12.996094 -10.292969 12.140625 -10.992188 C 11.285156 -11.6875 10.257812 -12.019531 9.035156 -12.019531 C 7.398438 -12.019531 5.878906 -11.410156 4.484375 -10.207031 C 3.839844 -9.648438 3.296875 -9 2.84375 -8.269531 C 2.390625 -7.535156 2.09375 -6.734375 1.9375 -5.914062 C 1.621094 -4.257812 1.902344 -2.824219 2.808594 -1.640625 C 3.734375 -0.4375 5.023438 0.175781 6.664062 0.175781 C 7.867188 0.175781 9.054688 -0.191406 10.207031 -0.890625 C 11.339844 -1.585938 12.230469 -2.496094 12.890625 -3.628906 Z M 12.890625 -3.628906 "/></g></g></g><g fill="#f7941e" fill-opacity="1"><g transform="translate(267.900036, 258.473654)"><g><path d="M 12.910156 -5.964844 C 12.648438 -4.621094 11.949219 -3.472656 10.816406 -2.511719 C 9.683594 -1.550781 8.425781 -1.082031 7.082031 -1.082031 C 5.738281 -1.082031 4.691406 -1.550781 3.925781 -2.511719 C 3.15625 -3.472656 2.894531 -4.621094 3.15625 -5.964844 C 3.417969 -7.308594 4.132812 -8.445312 5.269531 -9.402344 C 6.402344 -10.363281 7.640625 -10.832031 8.984375 -10.832031 C 10.328125 -10.832031 11.390625 -10.363281 12.160156 -9.402344 C 12.925781 -8.445312 13.171875 -7.308594 12.910156 -5.964844 Z M 14.128906 -5.964844 C 14.289062 -6.804688 14.289062 -7.589844 14.113281 -8.339844 C 13.9375 -9.089844 13.640625 -9.734375 13.1875 -10.273438 C 12.734375 -10.816406 12.175781 -11.253906 11.496094 -11.566406 C 10.816406 -11.878906 10.046875 -12.054688 9.210938 -12.054688 C 8.375 -12.054688 7.554688 -11.878906 6.75 -11.566406 C 5.949219 -11.253906 5.234375 -10.816406 4.570312 -10.273438 C 3.90625 -9.734375 3.347656 -9.089844 2.878906 -8.339844 C 2.40625 -7.589844 2.09375 -6.804688 1.9375 -5.964844 C 1.78125 -5.128906 1.796875 -4.34375 1.972656 -3.59375 C 2.144531 -2.84375 2.441406 -2.199219 2.894531 -1.640625 C 3.347656 -1.082031 3.890625 -0.644531 4.570312 -0.332031 C 5.25 -0.015625 6 0.140625 6.839844 0.140625 C 7.675781 0.140625 8.511719 -0.015625 9.316406 -0.332031 C 10.117188 -0.644531 10.851562 -1.082031 11.515625 -1.640625 C 12.175781 -2.199219 12.734375 -2.84375 13.207031 -3.59375 C 13.675781 -4.34375 13.972656 -5.128906 14.128906 -5.964844 Z M 14.128906 -5.964844 "/></g></g></g><g fill="#f7941e" fill-opacity="1"><g transform="translate(285.148181, 258.473654)"><g><path d="M 12.246094 0 L 13.484375 0 L 13.1875 -12.648438 L 7.328125 -2.496094 L 5.40625 -12.648438 L 0.175781 0 L 1.429688 0 L 4.902344 -8.445312 L 6.699219 0.699219 L 12.035156 -8.445312 Z M 12.246094 0 "/></g></g></g></svg>